  <svg xmlns="http://www.w3.org/2000/svg" x="0px" y="0px" width="218.8" height="56.1" viewBox="0 0 218.8 56.1">
  <g class="letters">
    <g class="e">
      <path class="st0" d="M218.8,2.5c0-1.6-1.2-2.5-2.5-2.5h0h-51.1c-1.4,0-2.5,1.2-2.5,2.5v51.1c0,1.4,1.1,2.5,2.5,2.5h51.1l0,0
									c1.4,0,2.5-1.2,2.5-2.5v-6.7c0-1.4-1.1-2.5-2.5-2.5h-41.8v-11h41.9l0,0c1.4,0,2.5-1.2,2.5-2.5v0V2.5L218.8,2.5z M174.4,11.8H207
									v10.7h-32.5V11.8z"></path>
    </g>
    <g class="i">
      <path class="st0" d="M80.6,20.2c0-1.4-1.2-2.5-2.5-2.5h-6.8c-1.4,0-2.5,1.1-2.5,2.5v33.3c0,1.4,1.1,2.6,2.5,2.6h6.7
									c1.4,0,2.5-1.2,2.5-2.6L80.6,20.2z"></path>
      <path class="st0" d="M80.6,2.5c0-1.4-1.2-2.5-2.5-2.5h-6.7c-1.4,0-2.5,1.1-2.5,2.5v6.8c0,1.4,1.1,2.5,2.5,2.5h6.7
									c1.4,0,2.5-1.1,2.5-2.5V2.5"></path>
    </g>
    <g class="n0">
      <path class="st0" d="M0,2.5C0,1.2,1.1,0,2.5,0l0,0h8.1v0c0.8,0,1.5,0.4,2,0.9h0l31.5,37V2.5c0-1.4,1.2-2.5,2.5-2.5l6.8,0
									c1.4,0,2.5,1.1,2.5,2.5v51c0,1.4-1.1,2.6-2.4,2.6l-8.3,0c-0.8,0-1.5-0.4-1.9-1L11.8,18.3v35.3l0,0c0,0,0,0,0,0
									c0,1.4-1.1,2.5-2.5,2.5l-6.8,0C1.1,56.1,0,55,0,53.6V2.5L0,2.5C0,2.5,0,2.5,0,2.5"></path>
    </g>
    <g class="n1">
      <path class="st0" d="M150.1,2.5c0-1.4-1.1-2.5-2.5-2.5l0,0l-8.1,0v0c-0.8,0-1.5,0.4-2,0.9h0l-31.5,37V2.5c0-1.4-1.2-2.5-2.5-2.5
									l-6.8,0c-1.4,0-2.5,1.1-2.5,2.5v51c0,1.4,1.1,2.6,2.4,2.6l8.3,0c0.8,0,1.5-0.4,1.9-1l31.4-36.9v35.3l0,0c0,0,0,0,0,0
									c0,1.4,1.1,2.5,2.5,2.5l6.8,0c1.4,0,2.5-1.1,2.5-2.6V2.5L150.1,2.5C150.1,2.5,150.1,2.5,150.1,2.5"></path>
    </g>
  </g>
</svg>
